# xmcd
#
# Track frame offsets: 
#        150
#        16535
#        32620
#        49808
#        65198
#        89442
#        102614
#        119107
#        137283
#        157427
#
# Disc length: 2282 seconds
#
# Revision: 2
# Processed by: cddbd v1.5.2PL0 Copyright (c) Steve Scherf et al.
# Submitted via: ExactAudioCopy v1.3
#
DISCID=8d08e80a
DTITLE=The Judds - Spiritual Reflections
DYEAR=1996
DGENRE=Country
TTITLE0=When King Jesus Calls His Children Home
TTITLE1=Guardian Angel
TTITLE2=The Sweetest Gift
TTITLE3=Beautiful Star Of Bethlehem
TTITLE4=Love Can Build A Bridge
TTITLE5=Don't You Hear Jerusalem Moan
TTITLE6=I Know Where I'm Going
TTITLE7=Grandpa (Tell Me 'Bout The Good Old Days)
TTITLE8=River Of Time
TTITLE9=Who Is This Babe
EXTD=
EXTT0=
EXTT1=
EXTT2=
EXTT3=
EXTT4=
EXTT5=
EXTT6=
EXTT7=
EXTT8=
EXTT9=
PLAYORDER=
